<?xml version="1.0" encoding="utf-8"?>
<!-- Generator: Adobe Illustrator 21.0.2, SVG Export Plug-In . SVG Version: 6.00 Build 0)  -->
<svg version="1.1" id="Layer_2" xmlns="http://www.w3.org/2000/svg" xmlns:xlink="http://www.w3.org/1999/xlink" x="0px" y="0px"
	 viewBox="0 0 841.9 595.3" style="enable-background:new 0 0 841.9 595.3;" xml:space="preserve">
<style type="text/css">
	.st0{fill:none;stroke:#000000;stroke-width:18;stroke-miterlimit:10;}
</style>
<path d="M119.5,194.1V232h41.7v-37.9h14.9v97.2h-14.9V246h-41.7v45.3h-14.9v-97.2H119.5z"/>
<path d="M237,268.6l12,6.7c-2.2,4.3-4.9,7.8-8,10.5c-5.6,5-12.5,7.4-20.6,7.4c-8.4,0-15.6-2.8-21.6-8.3c-6-5.5-9-13.5-9-23.9
	c0-9.7,2.7-17.6,8.2-23.6c5.4-6,12.7-9,21.7-9c10.1,0,17.8,3.7,23,11.2c3.8,5.4,5.7,12.9,5.7,22.3v2.2h-44c0.2,5.2,2,9.3,5.3,12.1
	c3.4,2.8,7.1,4.2,11.3,4.2c3.8,0,7-1.1,9.8-3.4C233.5,275.1,235.5,272.2,237,268.6z M205.4,252.5h28.4c-0.8-3.4-2.5-6.1-5-8.2
	c-2.6-2-5.6-3.1-9.1-3.1s-6.5,1-9,3.1C208.1,246.3,206.3,249.1,205.4,252.5z"/>
<path d="M260,230h14.3v34.8l42-40.4v66.9H302v-35.7l-42,40.4V230z M264.7,203.5l11.7-3.4c1.8,6.3,5.8,9.5,12,9.5c6,0,10-3.2,12-9.5
	l11.7,3.4c-1.6,5.5-4.7,9.8-9.4,12.8c-4.7,3-9.5,4.4-14.2,4.4c-4.8,0-9.5-1.5-14.2-4.4C269.4,213.3,266.3,209,264.7,203.5z"/>
<path d="M344.9,284.2v40.5h-14.3V230h14.3v6.7c4.7-5.5,10.7-8.3,18.2-8.3c8.4,0,15.4,2.9,21.2,8.8c5.8,5.9,8.7,13.6,8.7,23.1
	c0,9.8-3,17.8-9,23.8c-6,6.1-12.9,9.1-20.7,9.1C356,293.3,349.8,290.3,344.9,284.2z M361.4,241.2c-4.9,0-9,1.7-12.3,5.2
	c-3.4,3.5-5,8.3-5,14.7c0,6.1,1.7,10.9,5,14.3c3.4,3.4,7.5,5.1,12.3,5.1c5.1,0,9.2-1.9,12.3-5.7c3.2-3.8,4.7-8.4,4.7-13.9
	c0-5.5-1.6-10.2-4.7-14C370.5,243.1,366.4,241.2,361.4,241.2z"/>
<path d="M410.3,237.5c6.3-6.1,14.1-9.1,23.4-9.1c9.3,0,17.1,3,23.4,9.1c6.3,6.1,9.4,13.8,9.4,23.3c0,9.3-3.1,17.1-9.4,23.3
	c-6.3,6.2-14.1,9.3-23.4,9.3c-9.3,0-17.1-3.1-23.4-9.3c-6.3-6.2-9.4-13.9-9.4-23.3C400.9,251.3,404,243.6,410.3,237.5z M420.4,275.1
	c3.3,3.5,7.7,5.3,13.3,5.3c5.5,0,10-1.8,13.3-5.3c3.3-3.5,5-8.3,5-14.2c0-6.5-1.8-11.4-5.3-14.7c-3.5-3.3-7.9-5-12.9-5
	c-5.1,0-9.4,1.7-12.9,5c-3.5,3.3-5.3,8.2-5.3,14.7C415.5,266.8,417.1,271.6,420.4,275.1z"/>
<path d="M410.3,332.3c6.3-6.1,14.1-9.1,23.4-9.1c9.3,0,17.1,3,23.4,9.1c6.3,6.1,9.4,13.8,9.4,23.3c0,9.3-3.1,17.1-9.4,23.3
	c-6.3,6.2-14.1,9.3-23.4,9.3c-9.3,0-17.1-3.1-23.4-9.3c-6.3-6.2-9.4-13.9-9.4-23.3C400.9,346.1,404,338.4,410.3,332.3z M420.4,369.9
	c3.3,3.5,7.7,5.3,13.3,5.3c5.5,0,10-1.8,13.3-5.3c3.3-3.5,5-8.3,5-14.2c0-6.5-1.8-11.4-5.3-14.7c-3.5-3.3-7.9-5-12.9-5
	c-5.1,0-9.4,1.7-12.9,5c-3.5,3.3-5.3,8.2-5.3,14.7C415.4,361.6,417.1,366.3,420.4,369.9z"/>
<path d="M477.5,324.8h53.4v61.4h-14.3v-48.3h-24.8v48.3h-14.3V324.8z"/>
<path d="M589.2,363.4l12,6.7c-2.2,4.3-4.9,7.8-8,10.5c-5.6,5-12.5,7.4-20.6,7.4c-8.4,0-15.6-2.8-21.6-8.3c-6-5.5-9-13.5-9-23.9
	c0-9.7,2.7-17.6,8.2-23.6c5.4-6,12.7-9,21.7-9c10.1,0,17.8,3.7,23,11.2c3.8,5.4,5.7,12.9,5.7,22.3v2.2h-44c0.2,5.2,2,9.3,5.3,12.1
	c3.4,2.8,7.1,4.2,11.3,4.2c3.8,0,7-1.1,9.8-3.4C585.7,369.8,587.8,367,589.2,363.4z M557.6,347.2H586c-0.8-3.4-2.5-6.1-5-8.2
	c-2.6-2-5.6-3.1-9.1-3.1s-6.5,1-9,3.1C560.3,341.1,558.6,343.8,557.6,347.2z"/>
<path d="M626.5,379v40.5h-14.3v-94.8h14.3v6.7c4.7-5.5,10.7-8.3,18.2-8.3c8.4,0,15.4,2.9,21.2,8.8c5.8,5.9,8.7,13.6,8.7,23.1
	c0,9.8-3,17.8-9,23.8c-6,6.1-12.9,9.1-20.7,9.1C637.6,388,631.5,385,626.5,379z M643,336c-4.9,0-9,1.7-12.3,5.2
	c-3.4,3.5-5,8.3-5,14.7c0,6.1,1.7,10.9,5,14.3c3.4,3.4,7.5,5.1,12.3,5.1c5.1,0,9.2-1.9,12.3-5.7c3.2-3.8,4.7-8.4,4.7-13.9
	c0-5.5-1.6-10.2-4.7-14C652.2,337.9,648.1,336,643,336z"/>
<path d="M730.6,331.9v-7.1h14.3v61.4h-14.3v-6.4c-4.8,5.5-10.9,8.3-18.4,8.3c-9,0-16.3-3.2-21.7-9.6c-5.4-6.4-8.1-14.1-8.1-23
	c0-9.7,2.9-17.5,8.7-23.4c5.8-5.9,12.9-8.8,21.2-8.8C720.1,323.2,726.2,326.1,730.6,331.9z M714.2,336c-5.1,0-9.2,1.9-12.3,5.7
	c-3.2,3.8-4.7,8.5-4.7,14c0,5.4,1.6,10.1,4.7,13.9c3.2,3.8,7.3,5.7,12.3,5.7c4.9,0,9-1.7,12.3-5.1c3.4-3.4,5-8.2,5-14.3
	c0-6.3-1.7-11.2-5-14.7C723.1,337.7,719,336,714.2,336z"/>
<line class="st0" x1="433.8" y1="291.4" x2="433.8" y2="326.1"/>
<path d="M410.5,260.1c0-12.9,9.9-23.6,23.4-23.6c13.4,0,23.3,10.5,23.3,23.6c0,12.9-9.9,23.6-23.4,23.6
	C420.3,283.6,410.5,273.1,410.5,260.1z"/>
<path d="M410.5,357.6c0-12.9,9.9-23.6,23.4-23.6c13.4,0,23.3,10.5,23.3,23.6c0,12.9-9.9,23.6-23.4,23.6
	C420.3,381.1,410.5,370.6,410.5,357.6z"/>
</svg>
